<svg width="1200" height="760" viewBox="0 0 1200 760" fill="none" xmlns="http://www.w3.org/2000/svg">
  <rect width="1200" height="760" rx="28" fill="#F4F8FC"/>
  <rect x="52" y="48" width="1096" height="664" rx="24" fill="white" stroke="#D7E4F3" stroke-width="4"/>
  <rect x="52" y="48" width="1096" height="18" rx="9" fill="#1F5F97"/>
  <text x="92" y="108" font-family="Arial, sans-serif" font-size="40" font-weight="700" fill="#1F5F97">KAKEN database</text>
  <text x="92" y="146" font-family="Arial, sans-serif" font-size="22" fill="#626C7B">Project record object used for funding, role, and collaboration measures</text>

  <rect x="92" y="184" width="1016" height="88" rx="20" fill="#EEF4FB" stroke="#D7E4F3" stroke-width="3"/>
  <text x="124" y="224" font-family="Arial, sans-serif" font-size="20" font-weight="700" fill="#172033">Project / Area Number</text>
  <text x="124" y="252" font-family="Arial, sans-serif" font-size="26" font-weight="700" fill="#1F5F97">23K21503</text>
  <text x="430" y="224" font-family="Arial, sans-serif" font-size="20" font-weight="700" fill="#172033">Project Status</text>
  <text x="430" y="252" font-family="Arial, sans-serif" font-size="22" fill="#626C7B">Completed / Ongoing</text>
  <text x="772" y="224" font-family="Arial, sans-serif" font-size="20" font-weight="700" fill="#172033">Project Period</text>
  <text x="772" y="252" font-family="Arial, sans-serif" font-size="22" fill="#626C7B">FY start → FY end</text>

  <rect x="92" y="304" width="318" height="190" rx="20" fill="#F8F5FC" stroke="#E4DCED" stroke-width="3"/>
  <text x="120" y="346" font-family="Arial, sans-serif" font-size="21" font-weight="700" fill="#5B2A86">Funding attributes</text>
  <rect x="120" y="372" width="242" height="18" rx="9" fill="#DCCBEA"/>
  <rect x="120" y="404" width="218" height="18" rx="9" fill="#E8DCF2"/>
  <rect x="120" y="436" width="256" height="18" rx="9" fill="#F1E9F7"/>
  <text x="120" y="476" font-family="Arial, sans-serif" font-size="18" fill="#626C7B">Grant category, direct amount, fiscal-year timing</text>

  <rect x="442" y="304" width="318" height="190" rx="20" fill="#FFF7EF" stroke="#F0D7BD" stroke-width="3"/>
  <text x="470" y="346" font-family="Arial, sans-serif" font-size="21" font-weight="700" fill="#C76B35">Research roles</text>
  <rect x="470" y="372" width="176" height="18" rx="9" fill="#F0C8A5"/>
  <rect x="470" y="404" width="210" height="18" rx="9" fill="#F4D7BC"/>
  <rect x="470" y="436" width="188" height="18" rx="9" fill="#F8E3D2"/>
  <text x="470" y="476" font-family="Arial, sans-serif" font-size="18" fill="#626C7B">PI / Co-I assignments vary by project and year</text>

  <rect x="792" y="304" width="316" height="190" rx="20" fill="#EEF8F4" stroke="#CDE8DF" stroke-width="3"/>
  <text x="820" y="346" font-family="Arial, sans-serif" font-size="21" font-weight="700" fill="#00765F">Collaboration structure</text>
  <circle cx="874" cy="418" r="18" fill="#9AD4C3"/>
  <circle cx="948" cy="374" r="18" fill="#9AD4C3"/>
  <circle cx="1012" cy="430" r="18" fill="#9AD4C3"/>
  <circle cx="1080" cy="392" r="18" fill="#9AD4C3"/>
  <path d="M887 409L935 383M961 381L999 420M1024 423L1063 399M887 424L994 426" stroke="#00765F" stroke-width="5" stroke-linecap="round"/>
  <text x="820" y="476" font-family="Arial, sans-serif" font-size="18" fill="#626C7B">Co-participation records support rolling network indicators</text>

  <path d="M244 538C244 573.346 244 591.019 254.981 602C265.962 612.981 283.635 612.981 318.981 612.981H823.019C858.365 612.981 876.038 612.981 887.019 602C898 591.019 898 573.346 898 538" stroke="#D7E4F3" stroke-width="4"/>
  <text x="402" y="648" font-family="Arial, sans-serif" font-size="30" font-weight="700" fill="#172033">Observed project-side records</text>
  <text x="278" y="686" font-family="Arial, sans-serif" font-size="20" fill="#626C7B">Used to build lagged funding variables, project leadership measures, and collaboration-network positions before promotion</text>
</svg>
